<?xml version="1.0" encoding="iso-8859-1"?>
<!-- Generator: Adobe Illustrator 18.0.0, SVG Export Plug-In . SVG Version: 6.00 Build 0)  -->
<!DOCTYPE svg PUBLIC "-//W3C//DTD SVG 1.1//EN" "http://www.w3.org/Graphics/SVG/1.1/DTD/svg11.dtd">
<svg version="1.1" id="Capa_1" xmlns="http://www.w3.org/2000/svg" xmlns:xlink="http://www.w3.org/1999/xlink" x="0px" y="0px"
	 viewBox="0 0 426 426" style="enable-background:new 0 0 426 426;" xml:space="preserve">
<g>
	<path d="M265.5,116.033V92.326c0-6.797-5.529-12.326-12.326-12.326h-22.913l-5.242-68.862C224.543,4.892,219.264,0,213,0
		c-6.264,0-11.542,4.892-12.018,11.138L195.74,80h-22.914c-6.797,0-12.326,5.529-12.326,12.326v23.707
		c-11.685,0.624-21,10.326-21,22.164V386.5c0,11.785,8.085,21.716,19,24.539v10.46c0,2.485,2.015,4.5,4.5,4.5h100
		c2.485,0,4.5-2.015,4.5-4.5v-10.46c10.915-2.823,19-12.755,19-24.539V138.197C286.5,126.359,277.185,116.658,265.5,116.033z
		 M209.956,11.821C210.076,10.239,211.414,9,213,9c1.587,0,2.924,1.239,3.045,2.821L221.235,80h-16.469L209.956,11.821z M172.826,89
		h80.348c1.834,0,3.326,1.492,3.326,3.326V116h-87V92.326C169.5,90.492,170.992,89,172.826,89z M148.5,178h79v167h-79V178z
		 M167.5,417v-5.156h91V417H167.5z M277.5,386.5c0,9.012-7.332,16.344-16.344,16.344h-96.313c-9.012,0-16.344-7.332-16.344-16.344
		V354H232c2.485,0,4.5-2.015,4.5-4.5v-176c0-2.485-2.015-4.5-4.5-4.5h-83.5v-30.803c0-7.277,5.92-13.197,13.197-13.197h102.605
		c7.277,0,13.197,5.92,13.197,13.197V386.5z"/>
	<path d="M266,229c2.485,0,4.5-2.015,4.5-4.5v-57c0-2.485-2.015-4.5-4.5-4.5c-2.485,0-4.5,2.015-4.5,4.5v57
		C261.5,226.985,263.515,229,266,229z"/>
	<path d="M266.001,135c-2.485,0-4.5,2.015-4.5,4.5v12c0,2.485,2.015,4.5,4.5,4.5c2.485,0,4.5-2.015,4.5-4.5v-12
		C270.501,137.015,268.486,135,266.001,135z"/>
	<path d="M266.001,241.376c-2.485,0-4.5,2.015-4.5,4.5v8.25c0,2.485,2.015,4.5,4.5,4.5c2.485,0,4.5-2.015,4.5-4.5v-8.25
		C270.501,243.39,268.486,241.376,266.001,241.376z"/>
</g>
<g>
</g>
<g>
</g>
<g>
</g>
<g>
</g>
<g>
</g>
<g>
</g>
<g>
</g>
<g>
</g>
<g>
</g>
<g>
</g>
<g>
</g>
<g>
</g>
<g>
</g>
<g>
</g>
<g>
</g>
</svg>
